<?xml version="1.0" encoding="utf-8"?>
<!-- Generator: Adobe Illustrator 22.0.1, SVG Export Plug-In . SVG Version: 6.00 Build 0)  -->
<svg version="1.1" id="logoBlack2" xmlns="http://www.w3.org/2000/svg" xmlns:xlink="http://www.w3.org/1999/xlink" x="0px" y="0px"
	 viewBox="0 0 241.9 287" style="enable-background:new 0 0 241.9 287;" xml:space="preserve">

<title>logo-black</title>
<g id="Capa_2_1_">
	<g id="Capa_1-2">
		<path class="st0" d="M120.1,275.7c-27.2,0-54.5-9.9-75.9-30c-44.7-41.9-47-112.3-5.1-157l8,7.5C9.3,136.5,11.4,200,51.7,237.7
			c40.3,37.7,103.8,35.7,141.5-4.6c18.3-19.5,27.9-45,27-71.7c-0.9-26.7-12.1-51.5-31.6-69.8c-3.4-3.2-7.1-6.2-10.9-8.8l6.3-9
			c4.2,3,8.3,6.3,12.1,9.8c21.7,20.3,34.1,47.8,35.1,77.5s-9.7,57.9-30,79.6C179.4,263.9,149.8,275.7,120.1,275.7z"/>
		
			<path class="st0" d="M146.6,125.9c1.1,1,1.7,2.4,1.7,4c0,1.6-0.6,3-1.7,4c-1.1,1.1-2.5,1.7-4.2,1.7H72c-1.6,0-3-0.6-4.1-1.7
				c-1.2-1.1-1.7-2.5-1.7-4.1V24.3c0-1.7,0.6-3.1,1.7-4.2c1.1-1.1,2.5-1.7,4.1-1.7h70.4c1.7,0,3.1,0.6,4.2,1.7
				c1.1,1.1,1.7,2.5,1.7,4c0,1.6-0.6,2.9-1.7,4c-1.1,1-2.5,1.6-4.2,1.6H77.9v41.4h46.9c1.7,0,3.1,0.6,4.2,1.7c1.1,1.1,1.7,2.5,1.7,4
				c0,1.6-0.6,3-1.7,4c-1.2,1.1-2.5,1.7-4.1,1.7H77.9v41.8h64.5C144.1,124.3,145.5,124.9,146.6,125.9z"/>
		
		
			<path class="st2" d="M146.6,125.9c1.1,1,1.7,2.4,1.7,4c0,1.6-0.6,3-1.7,4c-1.1,1.1-2.5,1.7-4.2,1.7H72c-1.6,0-3-0.6-4.1-1.7
				c-1.2-1.1-1.7-2.5-1.7-4.1V24.3c0-1.7,0.6-3.1,1.7-4.2c1.1-1.1,2.5-1.7,4.1-1.7h70.4c1.7,0,3.1,0.6,4.2,1.7
				c1.1,1.1,1.7,2.5,1.7,4c0,1.6-0.6,2.9-1.7,4c-1.1,1-2.5,1.6-4.2,1.6H77.9v41.4h46.9c1.7,0,3.1,0.6,4.2,1.7c1.1,1.1,1.7,2.5,1.7,4
				c0,1.6-0.6,3-1.7,4c-1.2,1.1-2.5,1.7-4.1,1.7H77.9v41.8h64.5C144.1,124.3,145.5,124.9,146.6,125.9z"/>
		
		
			<path class="st0" d="M131.9,240c-1.1,1.1-2.5,1.7-4.2,1.7c-1.7,0-3.1-0.5-4.2-1.7c-1.1-1.1-1.6-2.5-1.6-4.2V130.4
				c0-1.7,0.5-3.1,1.6-4.2c1.1-1.1,2.5-1.7,4.2-1.7h30c7.3,0,13.8,1.6,19.6,4.9c5.7,3.3,10.2,7.8,13.4,13.5
				c3.2,5.8,4.8,12.3,4.8,19.7c0,7.3-1.6,13.8-4.8,19.5c-3.2,5.7-7.7,10.2-13.4,13.3c-5.8,3.2-12.3,4.8-19.6,4.8h-24.1v35.6
				C133.6,237.5,133,238.9,131.9,240z M171.4,185.6c4-2.3,7.1-5.4,9.4-9.4c2.3-4,3.4-8.5,3.4-13.6c0-5.2-1.1-9.8-3.4-13.9
				s-5.4-7.2-9.4-9.5c-4-2.3-8.5-3.5-13.7-3.5h-24.1V189h24.1C162.8,189,167.4,187.9,171.4,185.6z"/>
		
		
			<path class="st2" d="M131.9,240c-1.1,1.1-2.5,1.7-4.2,1.7c-1.7,0-3.1-0.5-4.2-1.7c-1.1-1.1-1.6-2.5-1.6-4.2V130.4
				c0-1.7,0.5-3.1,1.6-4.2c1.1-1.1,2.5-1.7,4.2-1.7h30c7.3,0,13.8,1.6,19.6,4.9c5.7,3.3,10.2,7.8,13.4,13.5
				c3.2,5.8,4.8,12.3,4.8,19.7c0,7.3-1.6,13.8-4.8,19.5c-3.2,5.7-7.7,10.2-13.4,13.3c-5.8,3.2-12.3,4.8-19.6,4.8h-24.1v35.6
				C133.6,237.5,133,238.9,131.9,240z M171.4,185.6c4-2.3,7.1-5.4,9.4-9.4c2.3-4,3.4-8.5,3.4-13.6c0-5.2-1.1-9.8-3.4-13.9
				s-5.4-7.2-9.4-9.5c-4-2.3-8.5-3.5-13.7-3.5h-24.1V189h24.1C162.8,189,167.4,187.9,171.4,185.6z"/>
		
	</g>
</g>
</svg>
